<svg xmlns="http://www.w3.org/2000/svg" version="1.1" xmlns:xlink="http://www.w3.org/1999/xlink" xmlns:svgjs="http://svgjs.dev/svgjs" viewBox="0 0 800 800" opacity="1"><defs><linearGradient x1="50%" y1="0%" x2="50%" y2="100%" id="vvvortex-grad"><stop stop-color="#5E0854" stop-opacity="1" offset="0%"></stop><stop stop-color="#121717" stop-opacity="1" offset="100%"></stop></linearGradient></defs><g stroke="url(#vvvortex-grad)" fill="#819C9C" stroke-linecap="square"><circle r="739.5" cx="400" cy="400" stroke-width="5" stroke-dasharray="45 29" stroke-dashoffset="25" transform="rotate(107, 400, 400)"></circle><circle r="725" cx="400" cy="400" stroke-width="5" stroke-dasharray="31 13" stroke-dashoffset="25" transform="rotate(69, 400, 400)"></circle><circle r="710.5" cx="400" cy="400" stroke-width="5" stroke-dasharray="51 19" stroke-dashoffset="25" transform="rotate(334, 400, 400)"></circle><circle r="696" cx="400" cy="400" stroke-width="5" stroke-dasharray="11 36" stroke-dashoffset="25" transform="rotate(176, 400, 400)"></circle><circle r="681.5" cx="400" cy="400" stroke-width="5" stroke-dasharray="55 26" stroke-dashoffset="25" transform="rotate(82, 400, 400)"></circle><circle r="667" cx="400" cy="400" stroke-width="5" stroke-dasharray="45 10" stroke-dashoffset="25" transform="rotate(249, 400, 400)"></circle><circle r="652.5" cx="400" cy="400" stroke-width="5" stroke-dasharray="53 54" stroke-dashoffset="25" transform="rotate(17, 400, 400)"></circle><circle r="638" cx="400" cy="400" stroke-width="4" stroke-dasharray="24 19" stroke-dashoffset="25" transform="rotate(333, 400, 400)"></circle><circle r="623.5" cx="400" cy="400" stroke-width="4" stroke-dasharray="51 18" stroke-dashoffset="25" transform="rotate(14, 400, 400)"></circle><circle r="609" cx="400" cy="400" stroke-width="4" stroke-dasharray="44 22" stroke-dashoffset="25" transform="rotate(298, 400, 400)"></circle><circle r="594.5" cx="400" cy="400" stroke-width="4" stroke-dasharray="36 51" stroke-dashoffset="25" transform="rotate(281, 400, 400)"></circle><circle r="580" cx="400" cy="400" stroke-width="4" stroke-dasharray="20 51" stroke-dashoffset="25" transform="rotate(284, 400, 400)"></circle><circle r="565.5" cx="400" cy="400" stroke-width="4" stroke-dasharray="35 24" stroke-dashoffset="25" transform="rotate(55, 400, 400)"></circle><circle r="551" cx="400" cy="400" stroke-width="4" stroke-dasharray="53 52" stroke-dashoffset="25" transform="rotate(90, 400, 400)"></circle><circle r="536.5" cx="400" cy="400" stroke-width="4" stroke-dasharray="41 21" stroke-dashoffset="25" transform="rotate(212, 400, 400)"></circle><circle r="522" cx="400" cy="400" stroke-width="4" stroke-dasharray="21 28" stroke-dashoffset="25" transform="rotate(159, 400, 400)"></circle><circle r="507.5" cx="400" cy="400" stroke-width="4" stroke-dasharray="36 34" stroke-dashoffset="25" transform="rotate(209, 400, 400)"></circle><circle r="493" cx="400" cy="400" stroke-width="4" stroke-dasharray="55 21" stroke-dashoffset="25" transform="rotate(76, 400, 400)"></circle><circle r="478.5" cx="400" cy="400" stroke-width="4" stroke-dasharray="34 20" stroke-dashoffset="25" transform="rotate(105, 400, 400)"></circle><circle r="464" cx="400" cy="400" stroke-width="3" stroke-dasharray="15 20" stroke-dashoffset="25" transform="rotate(199, 400, 400)"></circle><circle r="449.5" cx="400" cy="400" stroke-width="3" stroke-dasharray="33 22" stroke-dashoffset="25" transform="rotate(327, 400, 400)"></circle><circle r="435" cx="400" cy="400" stroke-width="3" stroke-dasharray="19 23" stroke-dashoffset="25" transform="rotate(285, 400, 400)"></circle><circle r="420.5" cx="400" cy="400" stroke-width="3" stroke-dasharray="52 51" stroke-dashoffset="25" transform="rotate(319, 400, 400)"></circle><circle r="406" cx="400" cy="400" stroke-width="3" stroke-dasharray="44 41" stroke-dashoffset="25" transform="rotate(105, 400, 400)"></circle><circle r="391.5" cx="400" cy="400" stroke-width="3" stroke-dasharray="43 31" stroke-dashoffset="25" transform="rotate(174, 400, 400)"></circle><circle r="377" cx="400" cy="400" stroke-width="3" stroke-dasharray="51 49" stroke-dashoffset="25" transform="rotate(279, 400, 400)"></circle><circle r="362.5" cx="400" cy="400" stroke-width="3" stroke-dasharray="38 18" stroke-dashoffset="25" transform="rotate(289, 400, 400)"></circle><circle r="348" cx="400" cy="400" stroke-width="3" stroke-dasharray="20 23" stroke-dashoffset="25" transform="rotate(250, 400, 400)"></circle><circle r="333.5" cx="400" cy="400" stroke-width="3" stroke-dasharray="41 15" stroke-dashoffset="25" transform="rotate(191, 400, 400)"></circle><circle r="319" cx="400" cy="400" stroke-width="3" stroke-dasharray="12 14" stroke-dashoffset="25" transform="rotate(113, 400, 400)"></circle><circle r="304.5" cx="400" cy="400" stroke-width="3" stroke-dasharray="31 55" stroke-dashoffset="25" transform="rotate(269, 400, 400)"></circle><circle r="290" cx="400" cy="400" stroke-width="3" stroke-dasharray="48 23" stroke-dashoffset="25" transform="rotate(243, 400, 400)"></circle><circle r="275.5" cx="400" cy="400" stroke-width="2" stroke-dasharray="30 38" stroke-dashoffset="25" transform="rotate(300, 400, 400)"></circle><circle r="261" cx="400" cy="400" stroke-width="2" stroke-dasharray="30 42" stroke-dashoffset="25" transform="rotate(328, 400, 400)"></circle><circle r="246.5" cx="400" cy="400" stroke-width="2" stroke-dasharray="18 28" stroke-dashoffset="25" transform="rotate(297, 400, 400)"></circle><circle r="232" cx="400" cy="400" stroke-width="2" stroke-dasharray="43 43" stroke-dashoffset="25" transform="rotate(7, 400, 400)"></circle><circle r="217.5" cx="400" cy="400" stroke-width="2" stroke-dasharray="21 12" stroke-dashoffset="25" transform="rotate(126, 400, 400)"></circle><circle r="203" cx="400" cy="400" stroke-width="2" stroke-dasharray="19 25" stroke-dashoffset="25" transform="rotate(93, 400, 400)"></circle><circle r="188.5" cx="400" cy="400" stroke-width="2" stroke-dasharray="42 23" stroke-dashoffset="25" transform="rotate(134, 400, 400)"></circle><circle r="174" cx="400" cy="400" stroke-width="2" stroke-dasharray="29 26" stroke-dashoffset="25" transform="rotate(90, 400, 400)"></circle><circle r="159.5" cx="400" cy="400" stroke-width="2" stroke-dasharray="46 32" stroke-dashoffset="25" transform="rotate(128, 400, 400)"></circle><circle r="145" cx="400" cy="400" stroke-width="2" stroke-dasharray="20 29" stroke-dashoffset="25" transform="rotate(118, 400, 400)"></circle><circle r="130.5" cx="400" cy="400" stroke-width="2" stroke-dasharray="23 22" stroke-dashoffset="25" transform="rotate(18, 400, 400)"></circle><circle r="116" cx="400" cy="400" stroke-width="2" stroke-dasharray="21 48" stroke-dashoffset="25" transform="rotate(57, 400, 400)"></circle><circle r="101.5" cx="400" cy="400" stroke-width="1" stroke-dasharray="12 27" stroke-dashoffset="25" transform="rotate(289, 400, 400)"></circle><circle r="87" cx="400" cy="400" stroke-width="1" stroke-dasharray="43 42" stroke-dashoffset="25" transform="rotate(314, 400, 400)"></circle><circle r="72.5" cx="400" cy="400" stroke-width="1" stroke-dasharray="15 20" stroke-dashoffset="25" transform="rotate(203, 400, 400)"></circle><circle r="58" cx="400" cy="400" stroke-width="1" stroke-dasharray="51 23" stroke-dashoffset="25" transform="rotate(170, 400, 400)"></circle><circle r="43.5" cx="400" cy="400" stroke-width="1" stroke-dasharray="25 17" stroke-dashoffset="25" transform="rotate(350, 400, 400)"></circle><circle r="29" cx="400" cy="400" stroke-width="1" stroke-dasharray="34 31" stroke-dashoffset="25" transform="rotate(143, 400, 400)"></circle><circle r="14.5" cx="400" cy="400" stroke-width="1" stroke-dasharray="23 28" stroke-dashoffset="25" transform="rotate(271, 400, 400)"></circle></g></svg>